<mxfile host="app.diagrams.net" modified="2022-10-15T08:27:24.332Z" agent="5.0 (Windows NT 10.0; WOW64) AppleWebKit/537.36 (KHTML, like Gecko) Chrome/87.0.4280.66 Safari/537.36" etag="_iuo87r-HmU3aYtx0voK" version="20.4.0" type="github">
  <diagram id="JFTOuWwPy1aWQQgCuJnN" name="第 1 页">
    <mxGraphModel dx="1960" dy="580" grid="1" gridSize="10" guides="1" tooltips="1" connect="1" arrows="1" fold="1" page="1" pageScale="1" pageWidth="827" pageHeight="1169" math="0" shadow="0">
      <root>
        <mxCell id="0" />
        <mxCell id="1" parent="0" />
        <mxCell id="nrr0WR0_Q5pp2IUW8ynp-33" style="rounded=1;orthogonalLoop=1;jettySize=auto;html=1;exitX=0.5;exitY=1;exitDx=0;exitDy=0;entryX=0.5;entryY=0;entryDx=0;entryDy=0;edgeStyle=orthogonalEdgeStyle;strokeColor=#0065C9;strokeWidth=2;fontStyle=1;fontColor=#FFFFFF;" parent="1" source="nrr0WR0_Q5pp2IUW8ynp-2" target="nrr0WR0_Q5pp2IUW8ynp-3" edge="1">
          <mxGeometry relative="1" as="geometry" />
        </mxCell>
        <mxCell id="nrr0WR0_Q5pp2IUW8ynp-34" style="edgeStyle=orthogonalEdgeStyle;rounded=1;orthogonalLoop=1;jettySize=auto;html=1;exitX=0.5;exitY=1;exitDx=0;exitDy=0;entryX=0.5;entryY=0;entryDx=0;entryDy=0;strokeColor=#0065C9;strokeWidth=2;fontStyle=1;fontColor=#FFFFFF;" parent="1" source="nrr0WR0_Q5pp2IUW8ynp-2" target="nrr0WR0_Q5pp2IUW8ynp-29" edge="1">
          <mxGeometry relative="1" as="geometry" />
        </mxCell>
        <mxCell id="nrr0WR0_Q5pp2IUW8ynp-35" style="edgeStyle=orthogonalEdgeStyle;rounded=0;orthogonalLoop=1;jettySize=auto;html=1;exitX=0.5;exitY=1;exitDx=0;exitDy=0;entryX=0.5;entryY=0;entryDx=0;entryDy=0;strokeColor=#0065C9;strokeWidth=2;fontStyle=1;fontColor=#FFFFFF;" parent="1" source="nrr0WR0_Q5pp2IUW8ynp-2" target="nrr0WR0_Q5pp2IUW8ynp-30" edge="1">
          <mxGeometry relative="1" as="geometry" />
        </mxCell>
        <mxCell id="nrr0WR0_Q5pp2IUW8ynp-36" style="edgeStyle=orthogonalEdgeStyle;rounded=1;orthogonalLoop=1;jettySize=auto;html=1;exitX=0.5;exitY=1;exitDx=0;exitDy=0;entryX=0.5;entryY=0;entryDx=0;entryDy=0;strokeColor=#0065C9;strokeWidth=2;fontStyle=1;fontColor=#FFFFFF;" parent="1" source="nrr0WR0_Q5pp2IUW8ynp-2" target="nrr0WR0_Q5pp2IUW8ynp-31" edge="1">
          <mxGeometry relative="1" as="geometry" />
        </mxCell>
        <mxCell id="nrr0WR0_Q5pp2IUW8ynp-37" style="edgeStyle=orthogonalEdgeStyle;rounded=1;orthogonalLoop=1;jettySize=auto;html=1;exitX=0.5;exitY=1;exitDx=0;exitDy=0;strokeColor=#0065C9;strokeWidth=2;fontStyle=1;fontColor=#FFFFFF;" parent="1" source="nrr0WR0_Q5pp2IUW8ynp-2" target="nrr0WR0_Q5pp2IUW8ynp-32" edge="1">
          <mxGeometry relative="1" as="geometry" />
        </mxCell>
        <mxCell id="nrr0WR0_Q5pp2IUW8ynp-2" value="&lt;span&gt;&lt;font style=&quot;font-size: 18px;&quot;&gt;酒店点评&lt;/font&gt;&lt;/span&gt;" style="rounded=1;whiteSpace=wrap;html=1;fillColor=#00FF00;fontStyle=1;fontColor=#FFFFFF;" parent="1" vertex="1">
          <mxGeometry x="500" y="120" width="120" height="40" as="geometry" />
        </mxCell>
        <mxCell id="nrr0WR0_Q5pp2IUW8ynp-10" style="edgeStyle=orthogonalEdgeStyle;orthogonalLoop=1;jettySize=auto;html=1;exitX=0.5;exitY=1;exitDx=0;exitDy=0;rounded=1;strokeColor=#0065C9;strokeWidth=2;fontStyle=1;fontColor=#FFFFFF;" parent="1" source="nrr0WR0_Q5pp2IUW8ynp-3" target="nrr0WR0_Q5pp2IUW8ynp-9" edge="1">
          <mxGeometry relative="1" as="geometry" />
        </mxCell>
        <mxCell id="nrr0WR0_Q5pp2IUW8ynp-11" style="edgeStyle=orthogonalEdgeStyle;rounded=1;orthogonalLoop=1;jettySize=auto;html=1;exitX=0.5;exitY=1;exitDx=0;exitDy=0;entryX=0.5;entryY=0;entryDx=0;entryDy=0;strokeColor=#0065C9;strokeWidth=2;fontStyle=1;fontColor=#FFFFFF;" parent="1" source="nrr0WR0_Q5pp2IUW8ynp-3" target="nrr0WR0_Q5pp2IUW8ynp-8" edge="1">
          <mxGeometry relative="1" as="geometry" />
        </mxCell>
        <mxCell id="nrr0WR0_Q5pp2IUW8ynp-3" value="&lt;span&gt;&lt;font style=&quot;font-size: 14px;&quot;&gt;点评C端&lt;/font&gt;&lt;/span&gt;" style="rounded=1;whiteSpace=wrap;html=1;fillColor=#00CC00;fontStyle=1;fontColor=#FFFFFF;" parent="1" vertex="1">
          <mxGeometry x="-18" y="210" width="80" height="30" as="geometry" />
        </mxCell>
        <mxCell id="nrr0WR0_Q5pp2IUW8ynp-16" style="edgeStyle=orthogonalEdgeStyle;rounded=1;orthogonalLoop=1;jettySize=auto;html=1;exitX=0.5;exitY=1;exitDx=0;exitDy=0;entryX=0;entryY=0.5;entryDx=0;entryDy=0;strokeColor=#0065C9;strokeWidth=2;fontStyle=1;fontColor=#FFFFFF;" parent="1" source="nrr0WR0_Q5pp2IUW8ynp-8" target="nrr0WR0_Q5pp2IUW8ynp-15" edge="1">
          <mxGeometry relative="1" as="geometry" />
        </mxCell>
        <mxCell id="nrr0WR0_Q5pp2IUW8ynp-17" style="edgeStyle=orthogonalEdgeStyle;rounded=1;orthogonalLoop=1;jettySize=auto;html=1;exitX=0.5;exitY=1;exitDx=0;exitDy=0;entryX=0;entryY=0.5;entryDx=0;entryDy=0;strokeColor=#0065C9;strokeWidth=2;fontStyle=1;fontColor=#FFFFFF;" parent="1" source="nrr0WR0_Q5pp2IUW8ynp-8" target="nrr0WR0_Q5pp2IUW8ynp-12" edge="1">
          <mxGeometry relative="1" as="geometry" />
        </mxCell>
        <mxCell id="nrr0WR0_Q5pp2IUW8ynp-18" style="edgeStyle=orthogonalEdgeStyle;rounded=1;orthogonalLoop=1;jettySize=auto;html=1;exitX=0.5;exitY=1;exitDx=0;exitDy=0;entryX=0;entryY=0.5;entryDx=0;entryDy=0;strokeColor=#0065C9;strokeWidth=2;fontStyle=1;fontColor=#FFFFFF;" parent="1" source="nrr0WR0_Q5pp2IUW8ynp-8" target="nrr0WR0_Q5pp2IUW8ynp-13" edge="1">
          <mxGeometry relative="1" as="geometry" />
        </mxCell>
        <mxCell id="nrr0WR0_Q5pp2IUW8ynp-19" style="edgeStyle=orthogonalEdgeStyle;rounded=1;orthogonalLoop=1;jettySize=auto;html=1;exitX=0.5;exitY=1;exitDx=0;exitDy=0;entryX=0;entryY=0.5;entryDx=0;entryDy=0;strokeColor=#0065C9;strokeWidth=2;fontStyle=1;fontColor=#FFFFFF;" parent="1" source="nrr0WR0_Q5pp2IUW8ynp-8" target="nrr0WR0_Q5pp2IUW8ynp-14" edge="1">
          <mxGeometry relative="1" as="geometry" />
        </mxCell>
        <mxCell id="jGMAu2YJxUVrW3LSejKh-5" style="edgeStyle=orthogonalEdgeStyle;rounded=1;orthogonalLoop=1;jettySize=auto;html=1;exitX=0.5;exitY=1;exitDx=0;exitDy=0;entryX=1;entryY=0.5;entryDx=0;entryDy=0;strokeColor=#0065C9;strokeWidth=2;fontStyle=1;fontColor=#FFFFFF;" edge="1" parent="1" source="nrr0WR0_Q5pp2IUW8ynp-8" target="jGMAu2YJxUVrW3LSejKh-1">
          <mxGeometry relative="1" as="geometry" />
        </mxCell>
        <mxCell id="jGMAu2YJxUVrW3LSejKh-6" style="edgeStyle=orthogonalEdgeStyle;rounded=1;orthogonalLoop=1;jettySize=auto;html=1;exitX=0.5;exitY=1;exitDx=0;exitDy=0;entryX=1;entryY=0.5;entryDx=0;entryDy=0;strokeColor=#0065C9;strokeWidth=2;fontStyle=1;fontColor=#FFFFFF;" edge="1" parent="1" source="nrr0WR0_Q5pp2IUW8ynp-8" target="jGMAu2YJxUVrW3LSejKh-2">
          <mxGeometry relative="1" as="geometry" />
        </mxCell>
        <mxCell id="jGMAu2YJxUVrW3LSejKh-7" style="edgeStyle=orthogonalEdgeStyle;rounded=1;orthogonalLoop=1;jettySize=auto;html=1;exitX=0.5;exitY=1;exitDx=0;exitDy=0;entryX=1;entryY=0.5;entryDx=0;entryDy=0;strokeColor=#0065C9;strokeWidth=2;fontStyle=1;fontColor=#FFFFFF;" edge="1" parent="1" source="nrr0WR0_Q5pp2IUW8ynp-8" target="jGMAu2YJxUVrW3LSejKh-3">
          <mxGeometry relative="1" as="geometry" />
        </mxCell>
        <mxCell id="jGMAu2YJxUVrW3LSejKh-8" style="edgeStyle=orthogonalEdgeStyle;rounded=1;orthogonalLoop=1;jettySize=auto;html=1;exitX=0.5;exitY=1;exitDx=0;exitDy=0;entryX=1;entryY=0.5;entryDx=0;entryDy=0;strokeColor=#0065C9;strokeWidth=2;fontStyle=1;fontColor=#FFFFFF;" edge="1" parent="1" source="nrr0WR0_Q5pp2IUW8ynp-8" target="jGMAu2YJxUVrW3LSejKh-4">
          <mxGeometry relative="1" as="geometry" />
        </mxCell>
        <mxCell id="nrr0WR0_Q5pp2IUW8ynp-8" value="业务" style="rounded=1;whiteSpace=wrap;html=1;fillColor=#00CC00;fontStyle=1;fontColor=#FFFFFF;" parent="1" vertex="1">
          <mxGeometry x="-98" y="290" width="80" height="30" as="geometry" />
        </mxCell>
        <mxCell id="nrr0WR0_Q5pp2IUW8ynp-25" style="edgeStyle=orthogonalEdgeStyle;rounded=1;orthogonalLoop=1;jettySize=auto;html=1;exitX=0.5;exitY=1;exitDx=0;exitDy=0;entryX=0;entryY=0.5;entryDx=0;entryDy=0;strokeColor=#0065C9;strokeWidth=2;fontStyle=1;fontColor=#FFFFFF;" parent="1" source="nrr0WR0_Q5pp2IUW8ynp-9" target="nrr0WR0_Q5pp2IUW8ynp-23" edge="1">
          <mxGeometry relative="1" as="geometry" />
        </mxCell>
        <mxCell id="nrr0WR0_Q5pp2IUW8ynp-26" style="edgeStyle=orthogonalEdgeStyle;rounded=1;orthogonalLoop=1;jettySize=auto;html=1;exitX=0.5;exitY=1;exitDx=0;exitDy=0;entryX=0;entryY=0.5;entryDx=0;entryDy=0;strokeColor=#0065C9;strokeWidth=2;fontStyle=1;fontColor=#FFFFFF;" parent="1" source="nrr0WR0_Q5pp2IUW8ynp-9" target="nrr0WR0_Q5pp2IUW8ynp-20" edge="1">
          <mxGeometry relative="1" as="geometry" />
        </mxCell>
        <mxCell id="nrr0WR0_Q5pp2IUW8ynp-27" style="edgeStyle=orthogonalEdgeStyle;rounded=1;orthogonalLoop=1;jettySize=auto;html=1;exitX=0.5;exitY=1;exitDx=0;exitDy=0;entryX=0;entryY=0.5;entryDx=0;entryDy=0;strokeColor=#0065C9;strokeWidth=2;fontStyle=1;fontColor=#FFFFFF;" parent="1" source="nrr0WR0_Q5pp2IUW8ynp-9" target="nrr0WR0_Q5pp2IUW8ynp-21" edge="1">
          <mxGeometry relative="1" as="geometry" />
        </mxCell>
        <mxCell id="nrr0WR0_Q5pp2IUW8ynp-28" style="edgeStyle=orthogonalEdgeStyle;rounded=1;orthogonalLoop=1;jettySize=auto;html=1;exitX=0.5;exitY=1;exitDx=0;exitDy=0;entryX=0;entryY=0.5;entryDx=0;entryDy=0;strokeColor=#0065C9;strokeWidth=2;fontStyle=1;fontColor=#FFFFFF;" parent="1" source="nrr0WR0_Q5pp2IUW8ynp-9" target="nrr0WR0_Q5pp2IUW8ynp-22" edge="1">
          <mxGeometry relative="1" as="geometry" />
        </mxCell>
        <mxCell id="jGMAu2YJxUVrW3LSejKh-10" style="edgeStyle=orthogonalEdgeStyle;rounded=1;orthogonalLoop=1;jettySize=auto;html=1;exitX=0.5;exitY=1;exitDx=0;exitDy=0;entryX=0;entryY=0.5;entryDx=0;entryDy=0;strokeColor=#0065C9;strokeWidth=2;fontSize=14;fontStyle=1;fontColor=#FFFFFF;" edge="1" parent="1" source="nrr0WR0_Q5pp2IUW8ynp-9" target="jGMAu2YJxUVrW3LSejKh-9">
          <mxGeometry relative="1" as="geometry" />
        </mxCell>
        <mxCell id="nrr0WR0_Q5pp2IUW8ynp-9" value="系统" style="rounded=1;whiteSpace=wrap;html=1;fillColor=#00CC00;fontStyle=1;fontColor=#FFFFFF;" parent="1" vertex="1">
          <mxGeometry x="62" y="290" width="80" height="30" as="geometry" />
        </mxCell>
        <mxCell id="nrr0WR0_Q5pp2IUW8ynp-12" value="C点评流量" style="rounded=1;whiteSpace=wrap;html=1;fillColor=#00CC00;fontStyle=1;fontColor=#FFFFFF;" parent="1" vertex="1">
          <mxGeometry x="-38" y="360" width="90" height="30" as="geometry" />
        </mxCell>
        <mxCell id="nrr0WR0_Q5pp2IUW8ynp-13" value="C初始化成功率" style="rounded=1;whiteSpace=wrap;html=1;fillColor=#00CC00;fontStyle=1;fontColor=#FFFFFF;" parent="1" vertex="1">
          <mxGeometry x="-38" y="420" width="90" height="30" as="geometry" />
        </mxCell>
        <mxCell id="nrr0WR0_Q5pp2IUW8ynp-14" value="C提交成功率" style="rounded=1;whiteSpace=wrap;html=1;fillColor=#00CC00;fontStyle=1;fontColor=#FFFFFF;" parent="1" vertex="1">
          <mxGeometry x="-38" y="480" width="90" height="30" as="geometry" />
        </mxCell>
        <mxCell id="nrr0WR0_Q5pp2IUW8ynp-15" value="C点评转化率" style="rounded=1;whiteSpace=wrap;html=1;fillColor=#00CC00;fontStyle=1;fontColor=#FFFFFF;" parent="1" vertex="1">
          <mxGeometry x="-38" y="540" width="90" height="30" as="geometry" />
        </mxCell>
        <mxCell id="nrr0WR0_Q5pp2IUW8ynp-20" value="请求量" style="rounded=1;whiteSpace=wrap;html=1;fillColor=#00CC00;fontStyle=1;fontColor=#FFFFFF;" parent="1" vertex="1">
          <mxGeometry x="122" y="360" width="80" height="30" as="geometry" />
        </mxCell>
        <mxCell id="nrr0WR0_Q5pp2IUW8ynp-21" value="响应时间" style="rounded=1;whiteSpace=wrap;html=1;fillColor=#00CC00;fontStyle=1;fontColor=#FFFFFF;" parent="1" vertex="1">
          <mxGeometry x="122" y="420" width="80" height="30" as="geometry" />
        </mxCell>
        <mxCell id="nrr0WR0_Q5pp2IUW8ynp-22" value="错误数" style="rounded=1;whiteSpace=wrap;html=1;fillColor=#00CC00;fontStyle=1;fontColor=#FFFFFF;" parent="1" vertex="1">
          <mxGeometry x="122" y="480" width="80" height="30" as="geometry" />
        </mxCell>
        <mxCell id="nrr0WR0_Q5pp2IUW8ynp-23" value="CPU使用率" style="rounded=1;whiteSpace=wrap;html=1;fillColor=#00CC00;fontStyle=1;fontColor=#FFFFFF;" parent="1" vertex="1">
          <mxGeometry x="122" y="540" width="80" height="30" as="geometry" />
        </mxCell>
        <mxCell id="jGMAu2YJxUVrW3LSejKh-41" style="edgeStyle=orthogonalEdgeStyle;rounded=1;orthogonalLoop=1;jettySize=auto;html=1;exitX=0.5;exitY=1;exitDx=0;exitDy=0;strokeColor=#0065C9;strokeWidth=2;fontSize=14;fontColor=#FFFFFF;" edge="1" parent="1" source="nrr0WR0_Q5pp2IUW8ynp-29">
          <mxGeometry relative="1" as="geometry">
            <mxPoint x="428" y="290" as="targetPoint" />
          </mxGeometry>
        </mxCell>
        <mxCell id="jGMAu2YJxUVrW3LSejKh-42" style="edgeStyle=orthogonalEdgeStyle;rounded=1;orthogonalLoop=1;jettySize=auto;html=1;exitX=0.5;exitY=1;exitDx=0;exitDy=0;entryX=0.5;entryY=0;entryDx=0;entryDy=0;strokeColor=#0065C9;strokeWidth=2;fontSize=14;fontColor=#FFFFFF;" edge="1" parent="1" source="nrr0WR0_Q5pp2IUW8ynp-29" target="jGMAu2YJxUVrW3LSejKh-21">
          <mxGeometry relative="1" as="geometry" />
        </mxCell>
        <mxCell id="nrr0WR0_Q5pp2IUW8ynp-29" value="&lt;font style=&quot;font-size: 14px;&quot;&gt;&lt;span&gt;点评B端&lt;/span&gt;&lt;/font&gt;" style="rounded=1;whiteSpace=wrap;html=1;fontStyle=1;fontColor=#FFFFFF;fillColor=#00CC00;" parent="1" vertex="1">
          <mxGeometry x="318" y="210" width="80" height="30" as="geometry" />
        </mxCell>
        <mxCell id="jGMAu2YJxUVrW3LSejKh-63" style="edgeStyle=orthogonalEdgeStyle;rounded=1;orthogonalLoop=1;jettySize=auto;html=1;exitX=0.5;exitY=1;exitDx=0;exitDy=0;strokeColor=#0065C9;strokeWidth=2;fontSize=14;fontColor=#FFFFFF;" edge="1" parent="1" source="nrr0WR0_Q5pp2IUW8ynp-30" target="jGMAu2YJxUVrW3LSejKh-47">
          <mxGeometry relative="1" as="geometry" />
        </mxCell>
        <mxCell id="jGMAu2YJxUVrW3LSejKh-64" style="edgeStyle=orthogonalEdgeStyle;rounded=1;orthogonalLoop=1;jettySize=auto;html=1;exitX=0.5;exitY=1;exitDx=0;exitDy=0;strokeColor=#0065C9;strokeWidth=2;fontSize=14;fontColor=#FFFFFF;" edge="1" parent="1" source="nrr0WR0_Q5pp2IUW8ynp-30" target="jGMAu2YJxUVrW3LSejKh-53">
          <mxGeometry relative="1" as="geometry" />
        </mxCell>
        <mxCell id="nrr0WR0_Q5pp2IUW8ynp-30" value="&lt;span&gt;&lt;font style=&quot;font-size: 14px;&quot;&gt;运营端&lt;/font&gt;&lt;/span&gt;" style="rounded=1;whiteSpace=wrap;html=1;fontStyle=1;fontColor=#FFFFFF;fillColor=#00CC00;" parent="1" vertex="1">
          <mxGeometry x="660" y="210" width="80" height="30" as="geometry" />
        </mxCell>
        <mxCell id="jGMAu2YJxUVrW3LSejKh-85" style="edgeStyle=orthogonalEdgeStyle;rounded=1;orthogonalLoop=1;jettySize=auto;html=1;exitX=0.5;exitY=1;exitDx=0;exitDy=0;entryX=0.5;entryY=0;entryDx=0;entryDy=0;strokeColor=#0065C9;strokeWidth=2;fontSize=14;fontColor=#FFFFFF;" edge="1" parent="1" source="nrr0WR0_Q5pp2IUW8ynp-31" target="jGMAu2YJxUVrW3LSejKh-69">
          <mxGeometry relative="1" as="geometry" />
        </mxCell>
        <mxCell id="jGMAu2YJxUVrW3LSejKh-86" style="edgeStyle=orthogonalEdgeStyle;rounded=1;orthogonalLoop=1;jettySize=auto;html=1;exitX=0.5;exitY=1;exitDx=0;exitDy=0;entryX=0.5;entryY=0;entryDx=0;entryDy=0;strokeColor=#0065C9;strokeWidth=2;fontSize=14;fontColor=#FFFFFF;" edge="1" parent="1" source="nrr0WR0_Q5pp2IUW8ynp-31" target="jGMAu2YJxUVrW3LSejKh-75">
          <mxGeometry relative="1" as="geometry" />
        </mxCell>
        <mxCell id="nrr0WR0_Q5pp2IUW8ynp-31" value="&lt;span&gt;&lt;font style=&quot;font-size: 14px;&quot;&gt;分销&lt;/font&gt;&lt;/span&gt;" style="rounded=1;whiteSpace=wrap;html=1;fontStyle=1;fontColor=#FFFFFF;fillColor=#00CC00;" parent="1" vertex="1">
          <mxGeometry x="1000" y="210" width="80" height="30" as="geometry" />
        </mxCell>
        <mxCell id="jGMAu2YJxUVrW3LSejKh-107" style="edgeStyle=orthogonalEdgeStyle;rounded=1;orthogonalLoop=1;jettySize=auto;html=1;exitX=0.5;exitY=1;exitDx=0;exitDy=0;entryX=0.5;entryY=0;entryDx=0;entryDy=0;strokeColor=#0065C9;strokeWidth=2;fontSize=14;fontColor=#FFFFFF;" edge="1" parent="1" source="nrr0WR0_Q5pp2IUW8ynp-32" target="jGMAu2YJxUVrW3LSejKh-91">
          <mxGeometry relative="1" as="geometry" />
        </mxCell>
        <mxCell id="jGMAu2YJxUVrW3LSejKh-108" style="edgeStyle=orthogonalEdgeStyle;rounded=1;orthogonalLoop=1;jettySize=auto;html=1;exitX=0.5;exitY=1;exitDx=0;exitDy=0;entryX=0.5;entryY=0;entryDx=0;entryDy=0;strokeColor=#0065C9;strokeWidth=2;fontSize=14;fontColor=#FFFFFF;" edge="1" parent="1" source="nrr0WR0_Q5pp2IUW8ynp-32" target="jGMAu2YJxUVrW3LSejKh-97">
          <mxGeometry relative="1" as="geometry" />
        </mxCell>
        <mxCell id="nrr0WR0_Q5pp2IUW8ynp-32" value="&lt;font style=&quot;font-size: 14px;&quot;&gt;&lt;span&gt;计算&lt;/span&gt;&lt;/font&gt;" style="rounded=1;whiteSpace=wrap;html=1;fontStyle=1;fontColor=#FFFFFF;fillColor=#00CC00;" parent="1" vertex="1">
          <mxGeometry x="1340" y="210" width="80" height="30" as="geometry" />
        </mxCell>
        <mxCell id="jGMAu2YJxUVrW3LSejKh-1" value="T点评流量" style="rounded=1;whiteSpace=wrap;html=1;fillColor=#00CC00;fontStyle=1;fontColor=#FFFFFF;" vertex="1" parent="1">
          <mxGeometry x="-170" y="361" width="90" height="30" as="geometry" />
        </mxCell>
        <mxCell id="jGMAu2YJxUVrW3LSejKh-2" value="T初始化成功率" style="rounded=1;whiteSpace=wrap;html=1;fillColor=#00CC00;fontStyle=1;fontColor=#FFFFFF;" vertex="1" parent="1">
          <mxGeometry x="-170" y="421" width="90" height="30" as="geometry" />
        </mxCell>
        <mxCell id="jGMAu2YJxUVrW3LSejKh-3" value="T提交成功率" style="rounded=1;whiteSpace=wrap;html=1;fillColor=#00CC00;fontStyle=1;fontColor=#FFFFFF;" vertex="1" parent="1">
          <mxGeometry x="-170" y="481" width="90" height="30" as="geometry" />
        </mxCell>
        <mxCell id="jGMAu2YJxUVrW3LSejKh-4" value="T点评转化率" style="rounded=1;whiteSpace=wrap;html=1;fillColor=#00CC00;fontStyle=1;fontColor=#FFFFFF;" vertex="1" parent="1">
          <mxGeometry x="-170" y="541" width="90" height="30" as="geometry" />
        </mxCell>
        <mxCell id="jGMAu2YJxUVrW3LSejKh-9" value="CPU throttled" style="rounded=1;whiteSpace=wrap;html=1;fillColor=#00CC00;fontStyle=1;fontColor=#FFFFFF;" vertex="1" parent="1">
          <mxGeometry x="122" y="600" width="80" height="30" as="geometry" />
        </mxCell>
        <mxCell id="jGMAu2YJxUVrW3LSejKh-13" style="edgeStyle=orthogonalEdgeStyle;rounded=1;orthogonalLoop=1;jettySize=auto;html=1;exitX=0.5;exitY=1;exitDx=0;exitDy=0;entryX=0;entryY=0.5;entryDx=0;entryDy=0;strokeColor=#0065C9;strokeWidth=2;fontStyle=1;fontColor=#FFFFFF;" edge="1" parent="1" source="jGMAu2YJxUVrW3LSejKh-21" target="jGMAu2YJxUVrW3LSejKh-31">
          <mxGeometry relative="1" as="geometry" />
        </mxCell>
        <mxCell id="jGMAu2YJxUVrW3LSejKh-14" style="edgeStyle=orthogonalEdgeStyle;rounded=1;orthogonalLoop=1;jettySize=auto;html=1;exitX=0.5;exitY=1;exitDx=0;exitDy=0;entryX=0;entryY=0.5;entryDx=0;entryDy=0;strokeColor=#0065C9;strokeWidth=2;fontStyle=1;fontColor=#FFFFFF;" edge="1" parent="1" source="jGMAu2YJxUVrW3LSejKh-21" target="jGMAu2YJxUVrW3LSejKh-28">
          <mxGeometry relative="1" as="geometry" />
        </mxCell>
        <mxCell id="jGMAu2YJxUVrW3LSejKh-15" style="edgeStyle=orthogonalEdgeStyle;rounded=1;orthogonalLoop=1;jettySize=auto;html=1;exitX=0.5;exitY=1;exitDx=0;exitDy=0;entryX=0;entryY=0.5;entryDx=0;entryDy=0;strokeColor=#0065C9;strokeWidth=2;fontStyle=1;fontColor=#FFFFFF;" edge="1" parent="1" source="jGMAu2YJxUVrW3LSejKh-21" target="jGMAu2YJxUVrW3LSejKh-29">
          <mxGeometry relative="1" as="geometry" />
        </mxCell>
        <mxCell id="jGMAu2YJxUVrW3LSejKh-16" style="edgeStyle=orthogonalEdgeStyle;rounded=1;orthogonalLoop=1;jettySize=auto;html=1;exitX=0.5;exitY=1;exitDx=0;exitDy=0;entryX=0;entryY=0.5;entryDx=0;entryDy=0;strokeColor=#0065C9;strokeWidth=2;fontStyle=1;fontColor=#FFFFFF;" edge="1" parent="1" source="jGMAu2YJxUVrW3LSejKh-21" target="jGMAu2YJxUVrW3LSejKh-30">
          <mxGeometry relative="1" as="geometry" />
        </mxCell>
        <mxCell id="jGMAu2YJxUVrW3LSejKh-21" value="业务" style="rounded=1;whiteSpace=wrap;html=1;fillColor=#00CC00;fontStyle=1;fontColor=#FFFFFF;" vertex="1" parent="1">
          <mxGeometry x="240" y="290" width="80" height="30" as="geometry" />
        </mxCell>
        <mxCell id="jGMAu2YJxUVrW3LSejKh-22" style="edgeStyle=orthogonalEdgeStyle;rounded=1;orthogonalLoop=1;jettySize=auto;html=1;exitX=0.5;exitY=1;exitDx=0;exitDy=0;entryX=0;entryY=0.5;entryDx=0;entryDy=0;strokeColor=#0065C9;strokeWidth=2;fontStyle=1;fontColor=#FFFFFF;" edge="1" parent="1" source="jGMAu2YJxUVrW3LSejKh-27" target="jGMAu2YJxUVrW3LSejKh-35">
          <mxGeometry relative="1" as="geometry" />
        </mxCell>
        <mxCell id="jGMAu2YJxUVrW3LSejKh-23" style="edgeStyle=orthogonalEdgeStyle;rounded=1;orthogonalLoop=1;jettySize=auto;html=1;exitX=0.5;exitY=1;exitDx=0;exitDy=0;entryX=0;entryY=0.5;entryDx=0;entryDy=0;strokeColor=#0065C9;strokeWidth=2;fontStyle=1;fontColor=#FFFFFF;" edge="1" parent="1" source="jGMAu2YJxUVrW3LSejKh-27" target="jGMAu2YJxUVrW3LSejKh-32">
          <mxGeometry relative="1" as="geometry" />
        </mxCell>
        <mxCell id="jGMAu2YJxUVrW3LSejKh-24" style="edgeStyle=orthogonalEdgeStyle;rounded=1;orthogonalLoop=1;jettySize=auto;html=1;exitX=0.5;exitY=1;exitDx=0;exitDy=0;entryX=0;entryY=0.5;entryDx=0;entryDy=0;strokeColor=#0065C9;strokeWidth=2;fontStyle=1;fontColor=#FFFFFF;" edge="1" parent="1" source="jGMAu2YJxUVrW3LSejKh-27" target="jGMAu2YJxUVrW3LSejKh-33">
          <mxGeometry relative="1" as="geometry" />
        </mxCell>
        <mxCell id="jGMAu2YJxUVrW3LSejKh-25" style="edgeStyle=orthogonalEdgeStyle;rounded=1;orthogonalLoop=1;jettySize=auto;html=1;exitX=0.5;exitY=1;exitDx=0;exitDy=0;entryX=0;entryY=0.5;entryDx=0;entryDy=0;strokeColor=#0065C9;strokeWidth=2;fontStyle=1;fontColor=#FFFFFF;" edge="1" parent="1" source="jGMAu2YJxUVrW3LSejKh-27" target="jGMAu2YJxUVrW3LSejKh-34">
          <mxGeometry relative="1" as="geometry" />
        </mxCell>
        <mxCell id="jGMAu2YJxUVrW3LSejKh-26" style="edgeStyle=orthogonalEdgeStyle;rounded=1;orthogonalLoop=1;jettySize=auto;html=1;exitX=0.5;exitY=1;exitDx=0;exitDy=0;entryX=0;entryY=0.5;entryDx=0;entryDy=0;strokeColor=#0065C9;strokeWidth=2;fontSize=14;fontStyle=1;fontColor=#FFFFFF;" edge="1" parent="1" source="jGMAu2YJxUVrW3LSejKh-27" target="jGMAu2YJxUVrW3LSejKh-40">
          <mxGeometry relative="1" as="geometry" />
        </mxCell>
        <mxCell id="jGMAu2YJxUVrW3LSejKh-27" value="系统" style="rounded=1;whiteSpace=wrap;html=1;fillColor=#00CC00;fontStyle=1;fontColor=#FFFFFF;" vertex="1" parent="1">
          <mxGeometry x="400" y="290" width="80" height="30" as="geometry" />
        </mxCell>
        <mxCell id="jGMAu2YJxUVrW3LSejKh-28" value="1" style="rounded=1;whiteSpace=wrap;html=1;fillColor=#00CC00;fontStyle=1;fontColor=#FFFFFF;" vertex="1" parent="1">
          <mxGeometry x="300" y="360" width="90" height="30" as="geometry" />
        </mxCell>
        <mxCell id="jGMAu2YJxUVrW3LSejKh-29" value="2" style="rounded=1;whiteSpace=wrap;html=1;fillColor=#00CC00;fontStyle=1;fontColor=#FFFFFF;" vertex="1" parent="1">
          <mxGeometry x="300" y="420" width="90" height="30" as="geometry" />
        </mxCell>
        <mxCell id="jGMAu2YJxUVrW3LSejKh-30" value="3" style="rounded=1;whiteSpace=wrap;html=1;fillColor=#00CC00;fontStyle=1;fontColor=#FFFFFF;" vertex="1" parent="1">
          <mxGeometry x="300" y="480" width="90" height="30" as="geometry" />
        </mxCell>
        <mxCell id="jGMAu2YJxUVrW3LSejKh-31" value="4" style="rounded=1;whiteSpace=wrap;html=1;fillColor=#00CC00;fontStyle=1;fontColor=#FFFFFF;" vertex="1" parent="1">
          <mxGeometry x="300" y="540" width="90" height="30" as="geometry" />
        </mxCell>
        <mxCell id="jGMAu2YJxUVrW3LSejKh-32" value="请求量" style="rounded=1;whiteSpace=wrap;html=1;fillColor=#00CC00;fontStyle=1;fontColor=#FFFFFF;" vertex="1" parent="1">
          <mxGeometry x="460" y="360" width="80" height="30" as="geometry" />
        </mxCell>
        <mxCell id="jGMAu2YJxUVrW3LSejKh-33" value="响应时间" style="rounded=1;whiteSpace=wrap;html=1;fillColor=#00CC00;fontStyle=1;fontColor=#FFFFFF;" vertex="1" parent="1">
          <mxGeometry x="460" y="420" width="80" height="30" as="geometry" />
        </mxCell>
        <mxCell id="jGMAu2YJxUVrW3LSejKh-34" value="错误数" style="rounded=1;whiteSpace=wrap;html=1;fillColor=#00CC00;fontStyle=1;fontColor=#FFFFFF;" vertex="1" parent="1">
          <mxGeometry x="460" y="480" width="80" height="30" as="geometry" />
        </mxCell>
        <mxCell id="jGMAu2YJxUVrW3LSejKh-35" value="CPU使用率" style="rounded=1;whiteSpace=wrap;html=1;fillColor=#00CC00;fontStyle=1;fontColor=#FFFFFF;" vertex="1" parent="1">
          <mxGeometry x="460" y="540" width="80" height="30" as="geometry" />
        </mxCell>
        <mxCell id="jGMAu2YJxUVrW3LSejKh-40" value="CPU throttled" style="rounded=1;whiteSpace=wrap;html=1;fillColor=#00CC00;fontStyle=1;fontColor=#FFFFFF;" vertex="1" parent="1">
          <mxGeometry x="460" y="600" width="80" height="30" as="geometry" />
        </mxCell>
        <mxCell id="jGMAu2YJxUVrW3LSejKh-43" style="edgeStyle=orthogonalEdgeStyle;rounded=1;orthogonalLoop=1;jettySize=auto;html=1;exitX=0.5;exitY=1;exitDx=0;exitDy=0;entryX=0;entryY=0.5;entryDx=0;entryDy=0;strokeColor=#0065C9;strokeWidth=2;fontStyle=1;fontColor=#FFFFFF;" edge="1" parent="1" source="jGMAu2YJxUVrW3LSejKh-47" target="jGMAu2YJxUVrW3LSejKh-57">
          <mxGeometry relative="1" as="geometry" />
        </mxCell>
        <mxCell id="jGMAu2YJxUVrW3LSejKh-44" style="edgeStyle=orthogonalEdgeStyle;rounded=1;orthogonalLoop=1;jettySize=auto;html=1;exitX=0.5;exitY=1;exitDx=0;exitDy=0;entryX=0;entryY=0.5;entryDx=0;entryDy=0;strokeColor=#0065C9;strokeWidth=2;fontStyle=1;fontColor=#FFFFFF;" edge="1" parent="1" source="jGMAu2YJxUVrW3LSejKh-47" target="jGMAu2YJxUVrW3LSejKh-54">
          <mxGeometry relative="1" as="geometry" />
        </mxCell>
        <mxCell id="jGMAu2YJxUVrW3LSejKh-45" style="edgeStyle=orthogonalEdgeStyle;rounded=1;orthogonalLoop=1;jettySize=auto;html=1;exitX=0.5;exitY=1;exitDx=0;exitDy=0;entryX=0;entryY=0.5;entryDx=0;entryDy=0;strokeColor=#0065C9;strokeWidth=2;fontStyle=1;fontColor=#FFFFFF;" edge="1" parent="1" source="jGMAu2YJxUVrW3LSejKh-47" target="jGMAu2YJxUVrW3LSejKh-55">
          <mxGeometry relative="1" as="geometry" />
        </mxCell>
        <mxCell id="jGMAu2YJxUVrW3LSejKh-46" style="edgeStyle=orthogonalEdgeStyle;rounded=1;orthogonalLoop=1;jettySize=auto;html=1;exitX=0.5;exitY=1;exitDx=0;exitDy=0;entryX=0;entryY=0.5;entryDx=0;entryDy=0;strokeColor=#0065C9;strokeWidth=2;fontStyle=1;fontColor=#FFFFFF;" edge="1" parent="1" source="jGMAu2YJxUVrW3LSejKh-47" target="jGMAu2YJxUVrW3LSejKh-56">
          <mxGeometry relative="1" as="geometry" />
        </mxCell>
        <mxCell id="jGMAu2YJxUVrW3LSejKh-47" value="业务" style="rounded=1;whiteSpace=wrap;html=1;fillColor=#00CC00;fontStyle=1;fontColor=#FFFFFF;" vertex="1" parent="1">
          <mxGeometry x="580" y="280" width="80" height="30" as="geometry" />
        </mxCell>
        <mxCell id="jGMAu2YJxUVrW3LSejKh-48" style="edgeStyle=orthogonalEdgeStyle;rounded=1;orthogonalLoop=1;jettySize=auto;html=1;exitX=0.5;exitY=1;exitDx=0;exitDy=0;entryX=0;entryY=0.5;entryDx=0;entryDy=0;strokeColor=#0065C9;strokeWidth=2;fontStyle=1;fontColor=#FFFFFF;" edge="1" parent="1" source="jGMAu2YJxUVrW3LSejKh-53" target="jGMAu2YJxUVrW3LSejKh-61">
          <mxGeometry relative="1" as="geometry" />
        </mxCell>
        <mxCell id="jGMAu2YJxUVrW3LSejKh-49" style="edgeStyle=orthogonalEdgeStyle;rounded=1;orthogonalLoop=1;jettySize=auto;html=1;exitX=0.5;exitY=1;exitDx=0;exitDy=0;entryX=0;entryY=0.5;entryDx=0;entryDy=0;strokeColor=#0065C9;strokeWidth=2;fontStyle=1;fontColor=#FFFFFF;" edge="1" parent="1" source="jGMAu2YJxUVrW3LSejKh-53" target="jGMAu2YJxUVrW3LSejKh-58">
          <mxGeometry relative="1" as="geometry" />
        </mxCell>
        <mxCell id="jGMAu2YJxUVrW3LSejKh-50" style="edgeStyle=orthogonalEdgeStyle;rounded=1;orthogonalLoop=1;jettySize=auto;html=1;exitX=0.5;exitY=1;exitDx=0;exitDy=0;entryX=0;entryY=0.5;entryDx=0;entryDy=0;strokeColor=#0065C9;strokeWidth=2;fontStyle=1;fontColor=#FFFFFF;" edge="1" parent="1" source="jGMAu2YJxUVrW3LSejKh-53" target="jGMAu2YJxUVrW3LSejKh-59">
          <mxGeometry relative="1" as="geometry" />
        </mxCell>
        <mxCell id="jGMAu2YJxUVrW3LSejKh-51" style="edgeStyle=orthogonalEdgeStyle;rounded=1;orthogonalLoop=1;jettySize=auto;html=1;exitX=0.5;exitY=1;exitDx=0;exitDy=0;entryX=0;entryY=0.5;entryDx=0;entryDy=0;strokeColor=#0065C9;strokeWidth=2;fontStyle=1;fontColor=#FFFFFF;" edge="1" parent="1" source="jGMAu2YJxUVrW3LSejKh-53" target="jGMAu2YJxUVrW3LSejKh-60">
          <mxGeometry relative="1" as="geometry" />
        </mxCell>
        <mxCell id="jGMAu2YJxUVrW3LSejKh-52" style="edgeStyle=orthogonalEdgeStyle;rounded=1;orthogonalLoop=1;jettySize=auto;html=1;exitX=0.5;exitY=1;exitDx=0;exitDy=0;entryX=0;entryY=0.5;entryDx=0;entryDy=0;strokeColor=#0065C9;strokeWidth=2;fontSize=14;fontStyle=1;fontColor=#FFFFFF;" edge="1" parent="1" source="jGMAu2YJxUVrW3LSejKh-53" target="jGMAu2YJxUVrW3LSejKh-62">
          <mxGeometry relative="1" as="geometry" />
        </mxCell>
        <mxCell id="jGMAu2YJxUVrW3LSejKh-53" value="系统" style="rounded=1;whiteSpace=wrap;html=1;fillColor=#00CC00;fontStyle=1;fontColor=#FFFFFF;" vertex="1" parent="1">
          <mxGeometry x="740" y="280" width="80" height="30" as="geometry" />
        </mxCell>
        <mxCell id="jGMAu2YJxUVrW3LSejKh-54" value="1" style="rounded=1;whiteSpace=wrap;html=1;fillColor=#00CC00;fontStyle=1;fontColor=#FFFFFF;" vertex="1" parent="1">
          <mxGeometry x="640" y="350" width="90" height="30" as="geometry" />
        </mxCell>
        <mxCell id="jGMAu2YJxUVrW3LSejKh-55" value="2" style="rounded=1;whiteSpace=wrap;html=1;fillColor=#00CC00;fontStyle=1;fontColor=#FFFFFF;" vertex="1" parent="1">
          <mxGeometry x="640" y="410" width="90" height="30" as="geometry" />
        </mxCell>
        <mxCell id="jGMAu2YJxUVrW3LSejKh-56" value="3" style="rounded=1;whiteSpace=wrap;html=1;fillColor=#00CC00;fontStyle=1;fontColor=#FFFFFF;" vertex="1" parent="1">
          <mxGeometry x="640" y="470" width="90" height="30" as="geometry" />
        </mxCell>
        <mxCell id="jGMAu2YJxUVrW3LSejKh-57" value="4" style="rounded=1;whiteSpace=wrap;html=1;fillColor=#00CC00;fontStyle=1;fontColor=#FFFFFF;" vertex="1" parent="1">
          <mxGeometry x="640" y="530" width="90" height="30" as="geometry" />
        </mxCell>
        <mxCell id="jGMAu2YJxUVrW3LSejKh-58" value="请求量" style="rounded=1;whiteSpace=wrap;html=1;fillColor=#00CC00;fontStyle=1;fontColor=#FFFFFF;" vertex="1" parent="1">
          <mxGeometry x="800" y="350" width="80" height="30" as="geometry" />
        </mxCell>
        <mxCell id="jGMAu2YJxUVrW3LSejKh-59" value="响应时间" style="rounded=1;whiteSpace=wrap;html=1;fillColor=#00CC00;fontStyle=1;fontColor=#FFFFFF;" vertex="1" parent="1">
          <mxGeometry x="800" y="410" width="80" height="30" as="geometry" />
        </mxCell>
        <mxCell id="jGMAu2YJxUVrW3LSejKh-60" value="错误数" style="rounded=1;whiteSpace=wrap;html=1;fillColor=#00CC00;fontStyle=1;fontColor=#FFFFFF;" vertex="1" parent="1">
          <mxGeometry x="800" y="470" width="80" height="30" as="geometry" />
        </mxCell>
        <mxCell id="jGMAu2YJxUVrW3LSejKh-61" value="CPU使用率" style="rounded=1;whiteSpace=wrap;html=1;fillColor=#00CC00;fontStyle=1;fontColor=#FFFFFF;" vertex="1" parent="1">
          <mxGeometry x="800" y="530" width="80" height="30" as="geometry" />
        </mxCell>
        <mxCell id="jGMAu2YJxUVrW3LSejKh-62" value="CPU throttled" style="rounded=1;whiteSpace=wrap;html=1;fillColor=#00CC00;fontStyle=1;fontColor=#FFFFFF;" vertex="1" parent="1">
          <mxGeometry x="800" y="590" width="80" height="30" as="geometry" />
        </mxCell>
        <mxCell id="jGMAu2YJxUVrW3LSejKh-65" style="edgeStyle=orthogonalEdgeStyle;rounded=1;orthogonalLoop=1;jettySize=auto;html=1;exitX=0.5;exitY=1;exitDx=0;exitDy=0;entryX=0;entryY=0.5;entryDx=0;entryDy=0;strokeColor=#0065C9;strokeWidth=2;fontStyle=1;fontColor=#FFFFFF;" edge="1" parent="1" source="jGMAu2YJxUVrW3LSejKh-69" target="jGMAu2YJxUVrW3LSejKh-79">
          <mxGeometry relative="1" as="geometry" />
        </mxCell>
        <mxCell id="jGMAu2YJxUVrW3LSejKh-66" style="edgeStyle=orthogonalEdgeStyle;rounded=1;orthogonalLoop=1;jettySize=auto;html=1;exitX=0.5;exitY=1;exitDx=0;exitDy=0;entryX=0;entryY=0.5;entryDx=0;entryDy=0;strokeColor=#0065C9;strokeWidth=2;fontStyle=1;fontColor=#FFFFFF;" edge="1" parent="1" source="jGMAu2YJxUVrW3LSejKh-69" target="jGMAu2YJxUVrW3LSejKh-76">
          <mxGeometry relative="1" as="geometry" />
        </mxCell>
        <mxCell id="jGMAu2YJxUVrW3LSejKh-67" style="edgeStyle=orthogonalEdgeStyle;rounded=1;orthogonalLoop=1;jettySize=auto;html=1;exitX=0.5;exitY=1;exitDx=0;exitDy=0;entryX=0;entryY=0.5;entryDx=0;entryDy=0;strokeColor=#0065C9;strokeWidth=2;fontStyle=1;fontColor=#FFFFFF;" edge="1" parent="1" source="jGMAu2YJxUVrW3LSejKh-69" target="jGMAu2YJxUVrW3LSejKh-77">
          <mxGeometry relative="1" as="geometry" />
        </mxCell>
        <mxCell id="jGMAu2YJxUVrW3LSejKh-68" style="edgeStyle=orthogonalEdgeStyle;rounded=1;orthogonalLoop=1;jettySize=auto;html=1;exitX=0.5;exitY=1;exitDx=0;exitDy=0;entryX=0;entryY=0.5;entryDx=0;entryDy=0;strokeColor=#0065C9;strokeWidth=2;fontStyle=1;fontColor=#FFFFFF;" edge="1" parent="1" source="jGMAu2YJxUVrW3LSejKh-69" target="jGMAu2YJxUVrW3LSejKh-78">
          <mxGeometry relative="1" as="geometry" />
        </mxCell>
        <mxCell id="jGMAu2YJxUVrW3LSejKh-69" value="业务" style="rounded=1;whiteSpace=wrap;html=1;fillColor=#00CC00;fontStyle=1;fontColor=#FFFFFF;" vertex="1" parent="1">
          <mxGeometry x="920" y="280" width="80" height="30" as="geometry" />
        </mxCell>
        <mxCell id="jGMAu2YJxUVrW3LSejKh-70" style="edgeStyle=orthogonalEdgeStyle;rounded=1;orthogonalLoop=1;jettySize=auto;html=1;exitX=0.5;exitY=1;exitDx=0;exitDy=0;entryX=0;entryY=0.5;entryDx=0;entryDy=0;strokeColor=#0065C9;strokeWidth=2;fontStyle=1;fontColor=#FFFFFF;" edge="1" parent="1" source="jGMAu2YJxUVrW3LSejKh-75" target="jGMAu2YJxUVrW3LSejKh-83">
          <mxGeometry relative="1" as="geometry" />
        </mxCell>
        <mxCell id="jGMAu2YJxUVrW3LSejKh-71" style="edgeStyle=orthogonalEdgeStyle;rounded=1;orthogonalLoop=1;jettySize=auto;html=1;exitX=0.5;exitY=1;exitDx=0;exitDy=0;entryX=0;entryY=0.5;entryDx=0;entryDy=0;strokeColor=#0065C9;strokeWidth=2;fontStyle=1;fontColor=#FFFFFF;" edge="1" parent="1" source="jGMAu2YJxUVrW3LSejKh-75" target="jGMAu2YJxUVrW3LSejKh-80">
          <mxGeometry relative="1" as="geometry" />
        </mxCell>
        <mxCell id="jGMAu2YJxUVrW3LSejKh-72" style="edgeStyle=orthogonalEdgeStyle;rounded=1;orthogonalLoop=1;jettySize=auto;html=1;exitX=0.5;exitY=1;exitDx=0;exitDy=0;entryX=0;entryY=0.5;entryDx=0;entryDy=0;strokeColor=#0065C9;strokeWidth=2;fontStyle=1;fontColor=#FFFFFF;" edge="1" parent="1" source="jGMAu2YJxUVrW3LSejKh-75" target="jGMAu2YJxUVrW3LSejKh-81">
          <mxGeometry relative="1" as="geometry" />
        </mxCell>
        <mxCell id="jGMAu2YJxUVrW3LSejKh-73" style="edgeStyle=orthogonalEdgeStyle;rounded=1;orthogonalLoop=1;jettySize=auto;html=1;exitX=0.5;exitY=1;exitDx=0;exitDy=0;entryX=0;entryY=0.5;entryDx=0;entryDy=0;strokeColor=#0065C9;strokeWidth=2;fontStyle=1;fontColor=#FFFFFF;" edge="1" parent="1" source="jGMAu2YJxUVrW3LSejKh-75" target="jGMAu2YJxUVrW3LSejKh-82">
          <mxGeometry relative="1" as="geometry" />
        </mxCell>
        <mxCell id="jGMAu2YJxUVrW3LSejKh-74" style="edgeStyle=orthogonalEdgeStyle;rounded=1;orthogonalLoop=1;jettySize=auto;html=1;exitX=0.5;exitY=1;exitDx=0;exitDy=0;entryX=0;entryY=0.5;entryDx=0;entryDy=0;strokeColor=#0065C9;strokeWidth=2;fontSize=14;fontStyle=1;fontColor=#FFFFFF;" edge="1" parent="1" source="jGMAu2YJxUVrW3LSejKh-75" target="jGMAu2YJxUVrW3LSejKh-84">
          <mxGeometry relative="1" as="geometry" />
        </mxCell>
        <mxCell id="jGMAu2YJxUVrW3LSejKh-75" value="系统" style="rounded=1;whiteSpace=wrap;html=1;fillColor=#00CC00;fontStyle=1;fontColor=#FFFFFF;" vertex="1" parent="1">
          <mxGeometry x="1080" y="280" width="80" height="30" as="geometry" />
        </mxCell>
        <mxCell id="jGMAu2YJxUVrW3LSejKh-76" value="1" style="rounded=1;whiteSpace=wrap;html=1;fillColor=#00CC00;fontStyle=1;fontColor=#FFFFFF;" vertex="1" parent="1">
          <mxGeometry x="980" y="350" width="90" height="30" as="geometry" />
        </mxCell>
        <mxCell id="jGMAu2YJxUVrW3LSejKh-77" value="2" style="rounded=1;whiteSpace=wrap;html=1;fillColor=#00CC00;fontStyle=1;fontColor=#FFFFFF;" vertex="1" parent="1">
          <mxGeometry x="980" y="410" width="90" height="30" as="geometry" />
        </mxCell>
        <mxCell id="jGMAu2YJxUVrW3LSejKh-78" value="3" style="rounded=1;whiteSpace=wrap;html=1;fillColor=#00CC00;fontStyle=1;fontColor=#FFFFFF;" vertex="1" parent="1">
          <mxGeometry x="980" y="470" width="90" height="30" as="geometry" />
        </mxCell>
        <mxCell id="jGMAu2YJxUVrW3LSejKh-79" value="4" style="rounded=1;whiteSpace=wrap;html=1;fillColor=#00CC00;fontStyle=1;fontColor=#FFFFFF;" vertex="1" parent="1">
          <mxGeometry x="980" y="530" width="90" height="30" as="geometry" />
        </mxCell>
        <mxCell id="jGMAu2YJxUVrW3LSejKh-80" value="请求量" style="rounded=1;whiteSpace=wrap;html=1;fillColor=#00CC00;fontStyle=1;fontColor=#FFFFFF;" vertex="1" parent="1">
          <mxGeometry x="1140" y="350" width="80" height="30" as="geometry" />
        </mxCell>
        <mxCell id="jGMAu2YJxUVrW3LSejKh-81" value="响应时间" style="rounded=1;whiteSpace=wrap;html=1;fillColor=#00CC00;fontStyle=1;fontColor=#FFFFFF;" vertex="1" parent="1">
          <mxGeometry x="1140" y="410" width="80" height="30" as="geometry" />
        </mxCell>
        <mxCell id="jGMAu2YJxUVrW3LSejKh-82" value="错误数" style="rounded=1;whiteSpace=wrap;html=1;fillColor=#00CC00;fontStyle=1;fontColor=#FFFFFF;" vertex="1" parent="1">
          <mxGeometry x="1140" y="470" width="80" height="30" as="geometry" />
        </mxCell>
        <mxCell id="jGMAu2YJxUVrW3LSejKh-83" value="CPU使用率" style="rounded=1;whiteSpace=wrap;html=1;fillColor=#00CC00;fontStyle=1;fontColor=#FFFFFF;" vertex="1" parent="1">
          <mxGeometry x="1140" y="530" width="80" height="30" as="geometry" />
        </mxCell>
        <mxCell id="jGMAu2YJxUVrW3LSejKh-84" value="CPU throttled" style="rounded=1;whiteSpace=wrap;html=1;fillColor=#00CC00;fontStyle=1;fontColor=#FFFFFF;" vertex="1" parent="1">
          <mxGeometry x="1140" y="590" width="80" height="30" as="geometry" />
        </mxCell>
        <mxCell id="jGMAu2YJxUVrW3LSejKh-87" style="edgeStyle=orthogonalEdgeStyle;rounded=1;orthogonalLoop=1;jettySize=auto;html=1;exitX=0.5;exitY=1;exitDx=0;exitDy=0;entryX=0;entryY=0.5;entryDx=0;entryDy=0;strokeColor=#0065C9;strokeWidth=2;fontStyle=1;fontColor=#FFFFFF;" edge="1" parent="1" source="jGMAu2YJxUVrW3LSejKh-91" target="jGMAu2YJxUVrW3LSejKh-101">
          <mxGeometry relative="1" as="geometry" />
        </mxCell>
        <mxCell id="jGMAu2YJxUVrW3LSejKh-88" style="edgeStyle=orthogonalEdgeStyle;rounded=1;orthogonalLoop=1;jettySize=auto;html=1;exitX=0.5;exitY=1;exitDx=0;exitDy=0;entryX=0;entryY=0.5;entryDx=0;entryDy=0;strokeColor=#0065C9;strokeWidth=2;fontStyle=1;fontColor=#FFFFFF;" edge="1" parent="1" source="jGMAu2YJxUVrW3LSejKh-91" target="jGMAu2YJxUVrW3LSejKh-98">
          <mxGeometry relative="1" as="geometry" />
        </mxCell>
        <mxCell id="jGMAu2YJxUVrW3LSejKh-89" style="edgeStyle=orthogonalEdgeStyle;rounded=1;orthogonalLoop=1;jettySize=auto;html=1;exitX=0.5;exitY=1;exitDx=0;exitDy=0;entryX=0;entryY=0.5;entryDx=0;entryDy=0;strokeColor=#0065C9;strokeWidth=2;fontStyle=1;fontColor=#FFFFFF;" edge="1" parent="1" source="jGMAu2YJxUVrW3LSejKh-91" target="jGMAu2YJxUVrW3LSejKh-99">
          <mxGeometry relative="1" as="geometry" />
        </mxCell>
        <mxCell id="jGMAu2YJxUVrW3LSejKh-90" style="edgeStyle=orthogonalEdgeStyle;rounded=1;orthogonalLoop=1;jettySize=auto;html=1;exitX=0.5;exitY=1;exitDx=0;exitDy=0;entryX=0;entryY=0.5;entryDx=0;entryDy=0;strokeColor=#0065C9;strokeWidth=2;fontStyle=1;fontColor=#FFFFFF;" edge="1" parent="1" source="jGMAu2YJxUVrW3LSejKh-91" target="jGMAu2YJxUVrW3LSejKh-100">
          <mxGeometry relative="1" as="geometry" />
        </mxCell>
        <mxCell id="jGMAu2YJxUVrW3LSejKh-91" value="业务" style="rounded=1;whiteSpace=wrap;html=1;fillColor=#00CC00;fontStyle=1;fontColor=#FFFFFF;" vertex="1" parent="1">
          <mxGeometry x="1260" y="280" width="80" height="30" as="geometry" />
        </mxCell>
        <mxCell id="jGMAu2YJxUVrW3LSejKh-92" style="edgeStyle=orthogonalEdgeStyle;rounded=1;orthogonalLoop=1;jettySize=auto;html=1;exitX=0.5;exitY=1;exitDx=0;exitDy=0;entryX=0;entryY=0.5;entryDx=0;entryDy=0;strokeColor=#0065C9;strokeWidth=2;fontStyle=1;fontColor=#FFFFFF;" edge="1" parent="1" source="jGMAu2YJxUVrW3LSejKh-97" target="jGMAu2YJxUVrW3LSejKh-105">
          <mxGeometry relative="1" as="geometry" />
        </mxCell>
        <mxCell id="jGMAu2YJxUVrW3LSejKh-93" style="edgeStyle=orthogonalEdgeStyle;rounded=1;orthogonalLoop=1;jettySize=auto;html=1;exitX=0.5;exitY=1;exitDx=0;exitDy=0;entryX=0;entryY=0.5;entryDx=0;entryDy=0;strokeColor=#0065C9;strokeWidth=2;fontStyle=1;fontColor=#FFFFFF;" edge="1" parent="1" source="jGMAu2YJxUVrW3LSejKh-97" target="jGMAu2YJxUVrW3LSejKh-102">
          <mxGeometry relative="1" as="geometry" />
        </mxCell>
        <mxCell id="jGMAu2YJxUVrW3LSejKh-94" style="edgeStyle=orthogonalEdgeStyle;rounded=1;orthogonalLoop=1;jettySize=auto;html=1;exitX=0.5;exitY=1;exitDx=0;exitDy=0;entryX=0;entryY=0.5;entryDx=0;entryDy=0;strokeColor=#0065C9;strokeWidth=2;fontStyle=1;fontColor=#FFFFFF;" edge="1" parent="1" source="jGMAu2YJxUVrW3LSejKh-97" target="jGMAu2YJxUVrW3LSejKh-103">
          <mxGeometry relative="1" as="geometry" />
        </mxCell>
        <mxCell id="jGMAu2YJxUVrW3LSejKh-95" style="edgeStyle=orthogonalEdgeStyle;rounded=1;orthogonalLoop=1;jettySize=auto;html=1;exitX=0.5;exitY=1;exitDx=0;exitDy=0;entryX=0;entryY=0.5;entryDx=0;entryDy=0;strokeColor=#0065C9;strokeWidth=2;fontStyle=1;fontColor=#FFFFFF;" edge="1" parent="1" source="jGMAu2YJxUVrW3LSejKh-97" target="jGMAu2YJxUVrW3LSejKh-104">
          <mxGeometry relative="1" as="geometry" />
        </mxCell>
        <mxCell id="jGMAu2YJxUVrW3LSejKh-96" style="edgeStyle=orthogonalEdgeStyle;rounded=1;orthogonalLoop=1;jettySize=auto;html=1;exitX=0.5;exitY=1;exitDx=0;exitDy=0;entryX=0;entryY=0.5;entryDx=0;entryDy=0;strokeColor=#0065C9;strokeWidth=2;fontSize=14;fontStyle=1;fontColor=#FFFFFF;" edge="1" parent="1" source="jGMAu2YJxUVrW3LSejKh-97" target="jGMAu2YJxUVrW3LSejKh-106">
          <mxGeometry relative="1" as="geometry" />
        </mxCell>
        <mxCell id="jGMAu2YJxUVrW3LSejKh-97" value="系统" style="rounded=1;whiteSpace=wrap;html=1;fillColor=#00CC00;fontStyle=1;fontColor=#FFFFFF;" vertex="1" parent="1">
          <mxGeometry x="1420" y="280" width="80" height="30" as="geometry" />
        </mxCell>
        <mxCell id="jGMAu2YJxUVrW3LSejKh-98" value="1" style="rounded=1;whiteSpace=wrap;html=1;fillColor=#00CC00;fontStyle=1;fontColor=#FFFFFF;" vertex="1" parent="1">
          <mxGeometry x="1320" y="350" width="90" height="30" as="geometry" />
        </mxCell>
        <mxCell id="jGMAu2YJxUVrW3LSejKh-99" value="2" style="rounded=1;whiteSpace=wrap;html=1;fillColor=#00CC00;fontStyle=1;fontColor=#FFFFFF;" vertex="1" parent="1">
          <mxGeometry x="1320" y="410" width="90" height="30" as="geometry" />
        </mxCell>
        <mxCell id="jGMAu2YJxUVrW3LSejKh-100" value="3" style="rounded=1;whiteSpace=wrap;html=1;fillColor=#00CC00;fontStyle=1;fontColor=#FFFFFF;" vertex="1" parent="1">
          <mxGeometry x="1320" y="470" width="90" height="30" as="geometry" />
        </mxCell>
        <mxCell id="jGMAu2YJxUVrW3LSejKh-101" value="4" style="rounded=1;whiteSpace=wrap;html=1;fillColor=#00CC00;fontStyle=1;fontColor=#FFFFFF;" vertex="1" parent="1">
          <mxGeometry x="1320" y="530" width="90" height="30" as="geometry" />
        </mxCell>
        <mxCell id="jGMAu2YJxUVrW3LSejKh-102" value="请求量" style="rounded=1;whiteSpace=wrap;html=1;fillColor=#00CC00;fontStyle=1;fontColor=#FFFFFF;" vertex="1" parent="1">
          <mxGeometry x="1480" y="350" width="80" height="30" as="geometry" />
        </mxCell>
        <mxCell id="jGMAu2YJxUVrW3LSejKh-103" value="响应时间" style="rounded=1;whiteSpace=wrap;html=1;fillColor=#00CC00;fontStyle=1;fontColor=#FFFFFF;" vertex="1" parent="1">
          <mxGeometry x="1480" y="410" width="80" height="30" as="geometry" />
        </mxCell>
        <mxCell id="jGMAu2YJxUVrW3LSejKh-104" value="错误数" style="rounded=1;whiteSpace=wrap;html=1;fillColor=#00CC00;fontStyle=1;fontColor=#FFFFFF;" vertex="1" parent="1">
          <mxGeometry x="1480" y="470" width="80" height="30" as="geometry" />
        </mxCell>
        <mxCell id="jGMAu2YJxUVrW3LSejKh-105" value="CPU使用率" style="rounded=1;whiteSpace=wrap;html=1;fillColor=#00CC00;fontStyle=1;fontColor=#FFFFFF;" vertex="1" parent="1">
          <mxGeometry x="1480" y="530" width="80" height="30" as="geometry" />
        </mxCell>
        <mxCell id="jGMAu2YJxUVrW3LSejKh-106" value="CPU throttled" style="rounded=1;whiteSpace=wrap;html=1;fillColor=#00CC00;fontStyle=1;fontColor=#FFFFFF;" vertex="1" parent="1">
          <mxGeometry x="1480" y="590" width="80" height="30" as="geometry" />
        </mxCell>
      </root>
    </mxGraphModel>
  </diagram>
</mxfile>
